<?xml version="1.0" standalone="no"?>
<!DOCTYPE svg PUBLIC "-//W3C//DTD SVG 1.1//EN" "http://www.w3.org/Graphics/SVG/1.1/DTD/svg11.dtd" >
<svg xmlns="http://www.w3.org/2000/svg" xmlns:xlink="http://www.w3.org/1999/xlink" version="1.1">
<metadata></metadata>
<defs>
<font id="akzidenz-grotesk_pro_regulaRg" horiz-adv-x="555" >
<font-face units-per-em="2048" ascent="1536" descent="-512" />
<missing-glyph horiz-adv-x="500" />
<glyph horiz-adv-x="0" />
<glyph horiz-adv-x="682" />
<glyph unicode=" " />
<glyph unicode="!" d="M236 0v184h161v-184h-161zM236 879v567h161v-590l-49 -555h-63z" />
<glyph unicode="&#x22;" horiz-adv-x="710" d="M90 1522h182l-57 -602h-65zM438 1522h180l-57 -602h-63z" />
<glyph unicode="#" horiz-adv-x="1366" d="M86 469v158h305l33 221h-291v158h311l64 438h164l-64 -438h226l65 438h160l-62 -438h283v-158h-303l-33 -221h285v-158h-307l-68 -469h-162l68 469h-228l-67 -469h-166l72 469h-285zM553 627h229l31 221h-227z" />
<glyph unicode="$" horiz-adv-x="1280" d="M41 418l209 22q28 -123 113 -207t225 -108v518q-54 16 -96 31t-99.5 40.5t-100 57.5t-81.5 74t-59.5 98.5t-20.5 122.5q0 80 30.5 147t78 110.5t110 75t121.5 47t117 19.5v226h137v-228q53 -8 104 -23t110 -45t106.5 -71t87.5 -104.5t59 -141.5l-191 -18 q-31 99 -101.5 166.5t-174.5 81.5v-484q48 -14 83 -25t91.5 -33t97 -45t87.5 -58.5t76 -74.5t49 -92.5t20 -113.5q0 -121 -71 -218.5t-182 -149.5t-235 -52h-16v-244h-137v244q-197 27 -324 113q-173 117 -223 342zM338 1090q0 -42 17 -77t39.5 -57t60.5 -41.5t65.5 -29 t67.5 -21.5v451q-96 -3 -173 -64t-77 -161zM725 119q69 0 133.5 24t111 79t46.5 130q0 90 -68 146.5t-223 105.5v-485z" />
<glyph unicode="%" horiz-adv-x="1835" d="M53 926q0 63 10 125.5t35 126t62 112t96 79t131 30.5q66 0 126 -30.5t107 -88t75 -150t28 -206.5q0 -58 -8 -116t-31.5 -122.5t-59 -113.5t-96.5 -81t-139 -32q-156 0 -246 130t-90 337zM188 938q0 -22 0.5 -39.5t4.5 -57.5t11 -71t22 -69t35.5 -63t53.5 -42.5t74 -17.5 q91 0 146 82.5t55 261.5q0 92 -15.5 161t-37.5 106t-52 59t-53 28t-47 6q-67 0 -112.5 -48t-65 -123.5t-19.5 -172.5zM508 -6l651 1403l111 -54l-649 -1402zM1069 449q0 63 10 125.5t35 126t62 112t96 79t131 30.5q66 0 126 -30.5t107 -88.5t75 -150.5t28 -206.5 q0 -47 -6 -95t-20 -102t-39.5 -100.5t-61 -84.5t-89 -60t-118.5 -22q-156 0 -246 130t-90 337zM1204 461q0 -22 0.5 -40t4.5 -58t11 -70.5t22 -69t35.5 -63.5t53.5 -42.5t74 -17.5q91 0 146 82.5t55 261.5q0 78 -10.5 139t-28.5 99t-38.5 64t-45.5 38t-43.5 16.5t-38.5 4.5 q-67 0 -112.5 -48t-65 -123.5t-19.5 -172.5z" />
<glyph unicode="&#x26;" horiz-adv-x="1236" d="M78 379q0 74 22.5 138.5t53 108t81 86t88.5 66t93 53.5q-3 7 -14.5 37.5t-14.5 39l-12 34t-11.5 38.5t-7.5 35t-6.5 42t-1.5 41q0 143 90.5 240.5t233.5 97.5q125 0 211 -81.5t86 -207.5q0 -49 -17.5 -97t-39.5 -80.5t-54.5 -64t-49.5 -45t-36 -26.5q-12 -8 -117 -70 q62 -140 205 -365q59 111 96 267h158q-29 -199 -156 -404q15 -21 35 -41.5t66 -42.5t98 -22q17 0 57 6v-170q-44 -8 -77 -8q-60 0 -111 15t-89 42.5t-57 45t-42 44.5q-66 -59 -144.5 -95t-128 -45t-92.5 -9q-47 0 -97.5 12.5t-104.5 42.5t-96.5 74t-69.5 113.5t-27 154.5z M252 399q0 -100 69.5 -179t184.5 -79q119 0 235 107q-24 34 -47.5 72.5t-52.5 88.5t-43 74q-90 152 -115 207q-67 -30 -115.5 -70t-72 -81t-33.5 -75t-10 -65zM512 1133q0 -87 68 -226q116 50 171.5 120t55.5 140q0 59 -38 101.5t-99 42.5q-22 0 -47.5 -9.5t-51 -28.5 t-42.5 -55.5t-17 -84.5z" />
<glyph unicode="'" horiz-adv-x="362" d="M90 1522h182l-57 -602h-65z" />
<glyph unicode="(" horiz-adv-x="645" d="M82 657q0 188 53 365t167.5 339t279.5 273l67 -82q-193 -169 -285 -383t-92 -497q0 -281 103 -527.5t278 -384.5l-65 -94q-242 180 -374 436t-132 555z" />
<glyph unicode=")" horiz-adv-x="653" d="M8 1546l68 94q244 -179 374 -436.5t130 -554.5q0 -294 -132 -557t-370 -420l-68 80q193 169 286 386t93 499t-102 526.5t-279 382.5z" />
<glyph unicode="*" horiz-adv-x="714" d="M37 1178l35 116l209 -55v211h127v-215l210 70l44 -111l-213 -76l129 -170l-99 -76l-135 175l-121 -175l-102 74l121 174z" />
<glyph unicode="+" horiz-adv-x="1482" d="M193 537v159h458v467h180v-467h461v-159h-461v-469h-180v469h-458z" />
<glyph unicode="," horiz-adv-x="468" d="M129 0v223h203v-123q0 -230 -84 -419h-96q67 191 67 319h-90z" />
<glyph unicode="-" horiz-adv-x="757" d="M92 537v155h574v-155h-574z" />
<glyph unicode="." horiz-adv-x="468" d="M131 0v231h203v-231h-203z" />
<glyph unicode="/" horiz-adv-x="681" d="M27 0l477 1438h153l-473 -1438h-157z" />
<glyph unicode="0" horiz-adv-x="1193" d="M100 684q0 205 58 364.5t171 252t265 92.5q217 0 359.5 -188.5t142.5 -508.5q0 -208 -56 -366.5t-170.5 -250t-273.5 -91.5q-47 0 -94 10t-96.5 34t-93.5 60t-83 92t-67.5 126t-45 166t-16.5 208zM283 676q0 -239 82 -384t235 -145q64 0 115 26.5t84 72.5t56 100.5 t34.5 119t16.5 118.5t5 108q0 34 -1.5 68.5t-9 90.5t-19.5 104.5t-35.5 101t-55.5 89.5t-81 61t-109 24q-76 0 -133.5 -33.5t-91.5 -86.5t-55.5 -128t-29 -148.5t-7.5 -158.5z" />
<glyph unicode="1" horiz-adv-x="1193" d="M242 1010v127q128 0 200 30t109 90q34 52 43 123h137v-1380h-192v1010h-297z" />
<glyph unicode="2" horiz-adv-x="1193" d="M158 961q0 210 129 325q122 107 317 107q176 0 297 -103q71 -59 109.5 -148t38.5 -186q0 -150 -91 -298.5t-249 -278.5q-132 -107 -306 -221h662v-158h-903v174q52 27 90.5 50.5t134 97t203.5 174.5q59 54 100.5 100t83 106t63 127.5t21.5 139.5q0 122 -69 193t-191 71 q-71 0 -123 -21.5t-81 -60.5t-42.5 -86t-13.5 -104q0 -66 24 -164h-180q-24 84 -24 164z" />
<glyph unicode="3" horiz-adv-x="1193" d="M82 457h184q4 -57 13 -98.5t30.5 -82.5t55.5 -66.5t91 -41.5t134 -16q19 0 34.5 0.5t48.5 5.5t59 13.5t57.5 27t52 44t35 66t14.5 90.5q0 110 -73.5 171t-229.5 61q-74 0 -135 -6v166q73 -5 104 -5q48 0 90 6t81.5 22t67.5 40.5t45 63.5t17 90q0 59 -26 105.5t-67.5 73 t-89 40.5t-95.5 14q-150 0 -222 -115q-18 -29 -28.5 -68t-13 -65.5t-5.5 -74.5l-182 8q6 114 27 182q20 64 54 114.5t76 80t82.5 49t85.5 28t72.5 11t55.5 2.5q213 0 336.5 -108t123.5 -277q0 -101 -39.5 -173t-128.5 -120q87 -35 148 -119.5t61 -210.5q0 -156 -106 -264 q-131 -133 -373 -133q-83 0 -157 15t-141.5 50.5t-116.5 88.5t-78 133.5t-29 181.5z" />
<glyph unicode="4" horiz-adv-x="1193" d="M86 332v166l659 882h144v-893h201v-155h-201v-332h-178v332h-625zM272 487h439l8 619z" />
<glyph unicode="5" horiz-adv-x="1193" d="M96 430l183 12q7 -56 26.5 -105t53.5 -94t91.5 -71.5t131.5 -26.5q32 0 66.5 7t78.5 29t77.5 58t57 101t23.5 149q0 140 -76.5 229t-222.5 89q-91 0 -161.5 -45t-111.5 -133h-166l46 751h784v-161h-645l-19 -363q126 111 305 111q109 0 198.5 -42t144.5 -111t84.5 -154.5 t29.5 -176.5q0 -96 -31 -183.5t-90 -157.5t-154 -112t-212 -42q-88 0 -162.5 22t-123.5 55t-88 77t-59.5 81.5t-33.5 75.5q-18 57 -25 131z" />
<glyph unicode="6" horiz-adv-x="1193" d="M127 674q0 118 16 221t53 195.5t93.5 159t141.5 105t192 38.5q156 0 266.5 -84t152.5 -273l-178 -24q-14 101 -76 163t-163 62q-73 0 -130 -30t-92.5 -78t-58.5 -114.5t-32 -132.5t-9 -139q45 67 134.5 117.5t207.5 50.5q74 0 147.5 -26.5t139 -78t106.5 -140t41 -199.5 q0 -62 -14.5 -125.5t-49.5 -128t-86 -114t-131 -80.5t-177 -31q-110 0 -213 50t-170 155q-62 95 -86.5 205t-24.5 276zM332 451q0 -128 83 -213.5t210 -85.5q123 0 198.5 87.5t75.5 209.5q0 34 -7.5 70.5t-27 77.5t-50 73t-81.5 53.5t-115 21.5q-62 0 -112 -19.5 t-81.5 -50.5t-53 -71t-30.5 -78t-9 -75z" />
<glyph unicode="7" horiz-adv-x="1193" d="M197 954v426h845v-198q0 -19 -2 -35t-4 -26t-11 -29t-13.5 -27.5t-22 -39t-26.5 -46.5l-72 -125q-284 -490 -330 -854h-217q47 366 418 944l61 96q46 71 57 99t11 78h-547v-263h-147z" />
<glyph unicode="8" horiz-adv-x="1193" d="M106 412q0 104 49.5 192.5t139.5 136.5q-80 54 -117 122t-37 163q0 175 117.5 271t341.5 96q87 0 157.5 -15.5t117 -39t81 -58t52.5 -67t29 -70.5t13.5 -64t2.5 -53q0 -192 -156 -285q31 -19 48.5 -31t49.5 -42t50 -61t32.5 -81.5t14.5 -109.5q0 -84 -29.5 -159t-87 -136 t-155 -97t-222.5 -36q-102 0 -186 25.5t-139.5 67.5t-94 97.5t-55.5 114t-17 119.5zM293 414q0 -71 29 -123.5t77 -80.5t99 -41t104 -13q40 0 78.5 7t79.5 25t71.5 46t50 74t19.5 104q0 56 -18 100t-47.5 71.5t-70.5 44.5t-83 24t-90 7q-84 0 -145.5 -23t-93 -61t-46 -78 t-14.5 -83zM324 1030q0 -28 5.5 -54t23 -57t46 -53.5t80 -37.5t119.5 -15q270 0 270 225q0 34 -14 66t-44 62.5t-87 49.5t-133 19q-115 0 -190.5 -50t-75.5 -155z" />
<glyph unicode="9" horiz-adv-x="1193" d="M106 909q0 67 15 131.5t50.5 128t87.5 111t133 77t181 29.5q251 0 376.5 -179t125.5 -509q0 -352 -153 -553q-121 -157 -359 -157q-91 0 -166 30.5t-123.5 82t-79 109.5t-44.5 122l178 33q47 -222 247 -222q113 0 189 74q66 65 100.5 182t34.5 224q-24 -30 -46 -52.5 t-64.5 -55t-102 -51t-129.5 -18.5q-200 0 -325.5 130.5t-125.5 332.5zM289 899q0 -72 24 -128.5t65.5 -91t92 -52t107.5 -17.5q78 0 138.5 26t95 68t52 90t17.5 97q0 90 -34 166t-106.5 126t-169.5 50q-67 0 -118.5 -23.5t-81.5 -59t-49.5 -82.5t-26 -88t-6.5 -81z" />
<glyph unicode=":" d="M217 0v231h203v-231h-203zM217 772v229h203v-229h-203z" />
<glyph unicode=";" d="M219 0v227h203v-125q0 -245 -80 -419h-92q51 158 51 317h-82zM219 778v226h203v-226h-203z" />
<glyph unicode="&#x3c;" horiz-adv-x="1482" d="M233 526v183l953 481v-180l-787 -389l787 -388v-186z" />
<glyph unicode="=" horiz-adv-x="1482" d="M203 334v158h1077v-158h-1077zM203 717v160h1077v-160h-1077z" />
<glyph unicode="&#x3e;" horiz-adv-x="1482" d="M295 43v182l786 387l-786 387v187l952 -477v-185z" />
<glyph unicode="?" horiz-adv-x="1150" d="M145 965v36q0 91 31.5 173t88.5 145.5t145.5 101t195.5 37.5q125 0 231.5 -53.5t173 -156t66.5 -232.5q0 -176 -111 -282.5t-278 -115.5v-311h-162v484h64q142 0 229.5 61.5t87.5 185.5q0 123 -90 195t-217 72q-64 0 -114 -20t-80 -51t-49 -73t-26 -82t-7 -82v-32h-179z M514 0v199h182v-199h-182z" />
<glyph unicode="@" horiz-adv-x="1835" d="M141 479q0 193 72.5 372.5t197 313t300.5 213.5t372 80q273 0 442 -159.5t169 -430.5q0 -153 -47 -299q-23 -70 -62 -141t-92.5 -136.5t-125 -107t-146.5 -41.5q-79 0 -124.5 47t-45.5 129q-134 -174 -295 -174q-89 0 -151 49.5t-89 122.5t-27 160q0 95 30.5 196.5 t84 188t137.5 142t181 55.5q83 0 144 -46.5t91 -125.5l31 127h139l-67 -307q-2 -9 -12.5 -55t-14 -62t-11.5 -56t-11 -63.5t-6 -56t-3 -60.5q0 -36 15 -62t49 -26q63 0 133 84q84 98 130 237t46 275q0 228 -136 357t-364 129q-136 0 -262.5 -46.5t-226 -129.5t-175 -191.5 t-115.5 -237.5t-40 -262q0 -193 89 -335.5t239.5 -214.5t341.5 -72q377 0 686 299l67 -84q-155 -155 -348 -241.5t-403 -86.5q-183 0 -357 72q-212 90 -321 260t-109 401zM651 487q0 -88 40.5 -149.5t123.5 -61.5q55 0 101 26.5t76.5 70t53.5 94t35.5 103.5t18.5 93t6 68 q0 81 -46.5 140t-125.5 59q-65 0 -120.5 -44.5t-90 -112t-53.5 -143.5t-19 -143z" />
<glyph unicode="A" horiz-adv-x="1323" d="M20 0l551 1446h201l526 -1446h-202l-158 442h-551l-162 -442h-205zM449 604h432l-211 604z" />
<glyph unicode="B" horiz-adv-x="1409" d="M158 0v1446h694q63 0 123 -15t113 -46t93 -74.5t63.5 -104.5t23.5 -131q0 -111 -60.5 -197.5t-160.5 -115.5q264 -80 264 -363q0 -92 -30.5 -164.5t-77 -115.5t-109 -71t-120 -38t-116.5 -10h-700zM340 170h469q49 0 86.5 4t80.5 18.5t71 40t46.5 71.5t18.5 110 q0 127 -81 193.5t-216 66.5h-475v-504zM340 838h428q45 0 81 4t78.5 18t71 37.5t47.5 66.5t19 101q0 96 -60 153.5t-188 57.5h-477v-438z" />
<glyph unicode="C" horiz-adv-x="1564" d="M100 723q0 225 86 396.5t252.5 267.5t392.5 96q253 0 419.5 -115.5t240.5 -327.5l-195 -39q-20 64 -57.5 120t-93 104t-137.5 76t-179 28q-243 0 -379.5 -163.5t-136.5 -432.5q0 -151 39.5 -269t110.5 -191t164 -110.5t204 -37.5q180 0 313 107.5t167 316.5l209 -25 q-16 -75 -48.5 -148.5t-92.5 -149.5t-137.5 -133t-190.5 -93.5t-244 -36.5q-323 0 -515 209t-192 551z" />
<glyph unicode="D" horiz-adv-x="1449" d="M160 0v1446h573q132 0 243 -46.5t194.5 -135t130.5 -228t47 -315.5q0 -114 -19 -214t-67 -195t-122 -162.5t-192.5 -108.5t-269.5 -41h-518zM358 168h342q220 0 335.5 147t115.5 408q0 121 -26.5 219t-80.5 174t-144 118t-210 42h-332v-1108z" />
<glyph unicode="E" horiz-adv-x="1236" d="M162 0v1446h995v-170h-811v-447h705v-167h-705v-494h836v-168h-1020z" />
<glyph unicode="F" horiz-adv-x="1110" d="M160 0v1446h927v-172h-735v-426h684v-168h-684v-680h-192z" />
<glyph unicode="G" horiz-adv-x="1662" d="M102 705q0 179 57.5 327t158 246t236.5 151.5t294 53.5q74 0 144.5 -11.5t148.5 -41.5t144.5 -76t128 -121t104.5 -170l-201 -51q-45 147 -168.5 229t-294.5 82q-108 0 -198.5 -33.5t-152.5 -90.5t-105 -134t-63 -162t-20 -176q0 -150 44.5 -267t120 -187t170 -106 t200.5 -36q80 0 154 19t137 57.5t109.5 91.5t73 126t26.5 157v20h-504v162h672v-764h-168v203q-23 -39 -64.5 -78t-105.5 -77t-158 -61.5t-201 -23.5q-212 0 -376 94t-253.5 263t-89.5 385z" />
<glyph unicode="H" horiz-adv-x="1492" d="M162 0v1446h190v-615h787v615h194v-1446h-194v662h-787v-662h-190z" />
<glyph unicode="I" horiz-adv-x="468" d="M137 0v1446h195v-1446h-195z" />
<glyph unicode="J" horiz-adv-x="768" d="M18 -16v211q82 -41 191 -41q49 0 96.5 18.5t73.5 56.5q23 34 28 81.5t5 156.5v979h196v-1063q0 -74 -2.5 -111t-20.5 -88.5t-55 -93.5q-109 -127 -315 -127q-85 0 -197 21z" />
<glyph unicode="K" horiz-adv-x="1280" d="M137 0v1446h193v-707l686 707h237l-585 -598l610 -848h-236l-507 713l-205 -209v-504h-193z" />
<glyph unicode="L" horiz-adv-x="1067" d="M139 0v1446h193v-1274h700v-172h-893z" />
<glyph unicode="M" horiz-adv-x="1662" d="M139 0v1446h250l442 -1186l447 1186h250v-1446h-193l27 1212l-457 -1212h-149l-449 1194q21 -1151 21 -1194h-189z" />
<glyph unicode="N" horiz-adv-x="1449" d="M160 0v1446h182l782 -1159q-8 1114 -8 1159h174v-1446h-174l-792 1176q18 -1147 18 -1176h-182z" />
<glyph unicode="O" horiz-adv-x="1662" d="M104 725q0 154 40.5 281t109.5 214.5t163 147.5t198.5 87.5t218.5 27.5q163 0 299 -55.5t230 -154t146 -237t52 -301.5q0 -110 -23.5 -215.5t-79.5 -208t-138 -178.5t-209.5 -123t-283.5 -47q-114 0 -219 29t-197.5 90.5t-160.5 150t-107 215t-39 277.5zM313 723 q0 -281 140.5 -444.5t384.5 -163.5q110 0 202 37.5t162.5 111.5t110 194.5t39.5 276.5q0 90 -16 172t-54.5 160t-96.5 134.5t-148 91t-203 34.5q-111 0 -200.5 -34t-148.5 -91.5t-98.5 -136t-56.5 -163.5t-17 -179z" />
<glyph unicode="P" horiz-adv-x="1280" d="M156 0v1446h686q136 0 231.5 -55.5t139.5 -146t44 -206.5q0 -63 -13.5 -121.5t-45 -115t-78.5 -98t-120 -66.5t-164 -25h-494v-612h-186zM342 784h465q120 0 190 65t70 193q0 121 -70.5 179.5t-187.5 58.5h-467v-496z" />
<glyph unicode="Q" horiz-adv-x="1662" d="M96 723q0 115 27 223t86 206.5t144 171.5t209.5 116t273.5 43q158 0 291 -52t229.5 -148t150.5 -241.5t54 -324.5q0 -133 -31 -236.5t-103 -218.5l224 -192l-123 -144l-230 195q-113 -84 -223 -121t-250 -37q-152 0 -284 50t-231.5 144t-156.5 239.5t-57 326.5zM307 729 q0 -89 17 -173t56.5 -164.5t99 -140t151 -96t205.5 -36.5q109 0 198 35t147.5 93t98.5 137t57 162.5t17 172.5q0 97 -19.5 186t-61.5 167.5t-102.5 136t-148 91t-193.5 33.5q-107 0 -195.5 -34.5t-148 -93t-100.5 -136.5t-59.5 -163.5t-18.5 -176.5z" />
<glyph unicode="R" horiz-adv-x="1366" d="M160 0v1446h651q216 0 342.5 -105.5t126.5 -316.5q0 -70 -16.5 -131t-53.5 -116.5t-106 -94.5t-164 -55l406 -627h-230l-395 614h-373v-614h-188zM348 776h426q316 0 316 248q0 122 -76 192t-213 70h-453v-510z" />
<glyph unicode="S" horiz-adv-x="1366" d="M76 463l207 26q1 -21 3 -39t11 -59t24 -73.5t46.5 -72.5t73 -66.5t108.5 -45t149 -18.5q42 0 84.5 6.5t94 25.5t90.5 49.5t65.5 84t26.5 122.5q0 59 -20 101t-60.5 68.5t-85 42t-109.5 28.5l-131 27q-128 26 -218 58.5t-157.5 80.5t-100 115.5t-32.5 156.5q0 167 138 283 q144 119 374 119q122 0 220.5 -23.5t179.5 -85.5q88 -66 125 -142.5t59 -193.5l-194 -12q0 30 -7 64t-30.5 79t-62 80t-109.5 59.5t-164 24.5q-56 0 -110 -11t-105.5 -35t-83 -71t-31.5 -110q0 -50 21 -88t63.5 -63.5t89 -42.5t115.5 -33l264 -64q26 -6 42.5 -10.5t59.5 -20 t73 -33t69.5 -50t64 -70.5t42.5 -94t18 -121q0 -178 -121 -297q-160 -156 -457 -156q-240 0 -395 100q-190 123 -217 400z" />
<glyph unicode="T" horiz-adv-x="1110" d="M23 1278v168h1058v-168h-432v-1278h-192v1278h-434z" />
<glyph unicode="U" horiz-adv-x="1409" d="M156 457v989h192v-957q0 -77 18.5 -140t58 -114t108 -79.5t161.5 -28.5q98 0 170.5 31.5t113.5 87t60 122.5t19 148v930h194v-969q0 -80 -21 -154t-65.5 -140t-109 -114.5t-158 -77t-205.5 -28.5q-131 0 -235 39t-168.5 107t-98.5 156.5t-34 191.5z" />
<glyph unicode="V" horiz-adv-x="1236" d="M23 1446h204l383 -1208l398 1208h204l-510 -1446h-190z" />
<glyph unicode="W" horiz-adv-x="2091" d="M37 1446h203l342 -1198l366 1198h189l381 -1198l337 1198h199l-442 -1446h-189l-381 1198l-368 -1198h-193z" />
<glyph unicode="X" horiz-adv-x="1280" d="M43 0l481 758l-454 688h229l338 -520l324 520h227l-443 -688l494 -758h-227l-375 588l-371 -588h-223z" />
<glyph unicode="Y" horiz-adv-x="1280" d="M29 1446h227l381 -612l385 612h229l-520 -784v-662h-194v662z" />
<glyph unicode="Z" horiz-adv-x="1236" d="M37 0v188l893 1082h-821v176h1040v-180l-889 -1092h909v-174h-1132z" />
<glyph unicode="[" horiz-adv-x="567" d="M139 -295v1890h377v-120h-213v-1649h213v-121h-377z" />
<glyph unicode="\" horiz-adv-x="681" d="M27 1438h157l473 -1438h-153z" />
<glyph unicode="]" horiz-adv-x="565" d="M47 -172h213v1649h-213v118h377v-1888h-377v121z" />
<glyph unicode="^" horiz-adv-x="1482" d="M231 588l418 858h187l415 -858h-186l-320 694l-321 -694h-193z" />
<glyph unicode="_" horiz-adv-x="1024" d="M-20 -285h1064v-153h-1064v153z" />
<glyph unicode="`" d="M143 1362h183l86 -295h-99z" />
<glyph unicode="a" horiz-adv-x="1024" d="M66 250q0 130 104 209q120 90 391 108l148 11v32q0 26 -0.5 43t-5 47.5t-12 50.5t-23.5 44.5t-38 39.5t-57 25t-79 10q-101 0 -155 -48.5t-54 -139.5v-14l-170 10q0 14 2.5 32.5t11.5 50.5t24 62t43.5 62t65.5 55.5t95 39t128 15.5q145 0 242 -57q50 -29 80 -61.5t44 -80 t17.5 -90.5t3.5 -118v-340q0 -22 0.5 -34.5t4.5 -29.5t11.5 -26t22 -16t35.5 -7q13 0 49 8v-137q-55 -18 -104 -18q-69 0 -103 24q-27 20 -45 57t-20 62q-21 -22 -34.5 -36t-47 -40t-65.5 -41.5t-81 -28t-102 -12.5q-145 0 -236 76.5t-91 200.5zM246 254q0 -60 45.5 -101.5 t136.5 -41.5q32 0 64 5.5t73 23.5t72 47.5t52.5 83t21.5 124.5v76q-8 -1 -55.5 -8t-79 -12.5t-76.5 -13.5t-79 -17.5t-56 -18.5q-16 -6 -32 -15.5t-38 -26.5t-35.5 -44.5t-13.5 -60.5z" />
<glyph unicode="b" horiz-adv-x="1150" d="M133 0v1446h164v-615q55 82 143 123t189 41q193 0 318.5 -137.5t125.5 -374.5q0 -146 -48 -260t-150.5 -184t-247.5 -70q-211 0 -330 156v-125h-164zM293 479q0 -53 9.5 -102.5t32 -99t56.5 -86t88 -59.5t121 -23q41 0 80 10.5t80 38t71 69.5t49 112t19 159 q0 164 -86 256t-213 92q-54 0 -104 -18t-97.5 -57.5t-76.5 -115t-29 -176.5z" />
<glyph unicode="c" horiz-adv-x="1067" d="M80 475q0 110 30 203.5t87.5 164.5t147.5 111.5t204 40.5q84 0 155.5 -20.5t120 -53t85 -76t56 -86.5t27.5 -87l-180 -17q-19 106 -87 164t-175 58q-58 0 -108 -21t-92 -64.5t-66.5 -122t-24.5 -184.5q0 -177 78 -283t223 -106q243 0 275 269l176 -17 q-38 -200 -157.5 -289.5t-297.5 -89.5q-223 0 -350 140t-127 366z" />
<glyph unicode="d" horiz-adv-x="1150" d="M80 485q0 108 27 196.5t71.5 145.5t103 96t118.5 55.5t122 16.5q118 0 208 -51.5t124 -105.5v608h164v-1446h-164v123q-25 -29 -47.5 -49.5t-63 -47.5t-96.5 -42t-123 -15q-208 0 -326 143t-118 373zM256 479q0 -54 8.5 -103.5t30.5 -98t55 -83.5t86.5 -57t120.5 -22 q45 0 86.5 11t81.5 38.5t68.5 69.5t46.5 109.5t18 152.5q0 152 -81.5 251t-215.5 99q-64 0 -116.5 -21t-87 -56t-57.5 -82.5t-33.5 -99.5t-10.5 -108z" />
<glyph unicode="e" horiz-adv-x="1067" d="M80 492q0 106 29.5 193t77 143t109.5 95t125 55.5t126 16.5q66 0 127.5 -17t119 -57t100.5 -98t69 -146.5t26 -197.5v-26h-733v-13q0 -47 10 -94t34 -93.5t59 -81.5t89 -57t121 -22q60 0 107.5 22t76.5 58.5t45 71.5t25 73l166 -22q-8 -23 -14.5 -40t-25.5 -53.5 t-39.5 -64t-56 -61t-76.5 -55.5t-99 -37t-125 -15q-93 0 -175 29t-150 88.5t-108 164t-40 241.5zM260 571h551q0 123 -78 210t-198 87q-83 0 -144.5 -43t-92.5 -108t-38 -146z" />
<glyph unicode="f" d="M23 829v136h159v84q0 114 4 163t21 91q52 133 229 133q48 0 119 -13v-129q-33 11 -90 11q-63 0 -93 -37.5t-30 -118.5v-184h182v-136h-182v-829h-160v829h-159z" />
<glyph unicode="g" horiz-adv-x="1150" d="M84 477q0 72 13 140.5t45.5 138.5t82 122t128.5 84.5t179 32.5q176 0 316 -161v131h170v-983q0 -103 -25.5 -183t-67.5 -130t-101.5 -81.5t-122 -44t-134.5 -12.5q-115 0 -207.5 36.5t-156 119t-74.5 202.5h184q0 -110 72.5 -167.5t194.5 -57.5q147 0 207.5 73t60.5 218 v186q-126 -172 -318 -172t-319 136.5t-127 371.5zM252 481q0 -163 77 -263.5t228 -100.5q150 0 223.5 105.5t73.5 273.5q0 163 -84 257.5t-219 94.5q-130 0 -214.5 -96t-84.5 -271z" />
<glyph unicode="h" horiz-adv-x="1067" d="M135 0v1446h164v-580q118 129 293 129q84 0 148 -23.5t100.5 -59.5t59.5 -87.5t30.5 -98.5t7.5 -101v-625h-166v565q0 107 -18 160q-23 63 -75 95t-120 32q-20 0 -43 -4t-55 -15t-63.5 -37.5t-53.5 -64.5q-21 -36 -31.5 -84t-12 -79.5t-1.5 -88.5v-479h-164z" />
<glyph unicode="i" horiz-adv-x="425" d="M141 0v965h158v-965h-158zM141 1257v189h158v-189h-158z" />
<glyph unicode="j" horiz-adv-x="425" d="M-47 -315q68 -7 74 -7q43 0 73 21q23 16 28 42t5 91v1133h160v-1178q0 -48 -1.5 -73t-13.5 -60.5t-36 -61.5q-57 -61 -166 -61q-68 0 -123 8v146zM133 1255v191h160v-191h-160z" />
<glyph unicode="k" horiz-adv-x="937" d="M133 0v1446h166v-891l385 410h201l-359 -381l441 -584h-205l-346 463l-117 -123v-340h-166z" />
<glyph unicode="l" horiz-adv-x="425" d="M137 0v1446h156v-1446h-156z" />
<glyph unicode="m" horiz-adv-x="1579" d="M131 0v965h154v-131q66 77 135.5 119t154.5 42q24 0 51.5 -4.5t72 -26.5t77.5 -59q24 -26 60 -88l37 37t55.5 50.5t59 41t82 38t89.5 11.5q79 0 136 -34.5t87 -71.5q41 -50 53.5 -109t12.5 -143v-637h-162v643q0 60 -18 102t-47 61.5t-56 27.5t-55 8q-71 0 -140.5 -46.5 t-90.5 -113.5q-13 -40 -13 -139v-543h-159v629q0 54 -13.5 94.5t-33 62t-46 34.5t-46.5 16.5t-40 3.5q-67 0 -136 -41t-93 -103q-14 -36 -14 -123v-573h-154z" />
<glyph unicode="n" horiz-adv-x="1067" d="M131 0v965h164v-142q39 68 115 120t188 52q23 0 50.5 -4.5t69 -16.5t83 -41t71.5 -71q37 -53 48.5 -111.5t11.5 -140.5v-610h-162v633q0 105 -63 157t-156 52q-106 0 -181 -73.5t-75 -197.5v-571h-164z" />
<glyph unicode="o" horiz-adv-x="1110" d="M82 481q0 55 10 114t42 133.5t82.5 131t142 96t210.5 39.5q69 0 134 -18.5t124.5 -59t104 -98.5t70.5 -142t26 -185q0 -126 -37.5 -227t-102.5 -165t-150 -97.5t-183 -33.5q-209 0 -341 135t-132 377zM260 473q0 -42 5.5 -84t24 -96.5t48.5 -95t86 -69t129 -28.5 q146 0 222.5 106.5t76.5 297.5q0 67 -14.5 127t-45.5 114.5t-89 86.5t-136 32q-63 0 -113 -19t-81.5 -47t-54.5 -69.5t-33.5 -75.5t-16.5 -76.5t-7 -62t-1 -41.5z" />
<glyph unicode="p" horiz-adv-x="1150" d="M133 -459v1424h160v-138q50 64 140.5 116t203.5 52q78 0 152.5 -31t138.5 -91t103.5 -162.5t39.5 -231.5q0 -70 -13.5 -138t-47 -136.5t-83.5 -120t-129.5 -83.5t-179.5 -32q-97 0 -185 36.5t-140 107.5v-572h-160zM293 465q0 -164 81 -258t222 -94q149 0 228 99.5 t79 272.5q0 93 -26.5 164.5t-71 112t-95 60.5t-104.5 20q-142 0 -227.5 -100t-85.5 -277z" />
<glyph unicode="q" horiz-adv-x="1150" d="M82 465q0 114 26.5 206t69.5 151.5t101.5 99.5t118.5 56.5t124 16.5q31 0 63.5 -5t82.5 -20.5t99 -53.5t85 -95v144h166v-1426h-166v576q-118 -146 -332 -146q-192 0 -315 127t-123 369zM260 469q0 -98 24.5 -171t68 -114.5t95.5 -61.5t113 -20q17 0 34.5 1.5t49 9 t59 20.5t58 39.5t52 61.5t36 90.5t14.5 124.5q0 39 -5 78t-17 85.5t-34.5 85.5t-54.5 72.5t-81.5 52.5t-110.5 19q-301 0 -301 -373z" />
<glyph unicode="r" horiz-adv-x="641" d="M133 0v965h164v-177q37 69 90 111q98 78 240 78v-176q-30 6 -64 6q-90 0 -159 -47.5t-93 -134.5q-14 -57 -14 -179v-446h-164z" />
<glyph unicode="s" horiz-adv-x="980" d="M63 311l187 27q0 -56 10.5 -95.5t42.5 -74.5q67 -74 217 -74q27 0 54 3.5t58.5 14.5t55 28t39.5 47t16 69q0 34 -13.5 59.5t-30.5 40.5t-48.5 26.5t-51.5 16.5t-56 11l-94 18q-189 37 -267 105.5t-78 175.5q0 61 22.5 110.5t59.5 81.5t86 54t101 31t106 9 q136 0 226 -51.5t135 -118.5q39 -59 51 -147l-176 -21q-3 63 -15 91q-22 47 -85 84.5t-158 37.5q-92 0 -141.5 -44t-49.5 -97q0 -31 15 -54t48 -40.5t71.5 -29.5t99.5 -27l94 -23q75 -18 127.5 -38t99.5 -52t70.5 -79.5t23.5 -111.5q0 -136 -114.5 -220.5t-288.5 -84.5 q-113 0 -196.5 26.5t-134.5 75t-78.5 107t-39.5 133.5z" />
<glyph unicode="t" horiz-adv-x="598" d="M33 829v136h155v305h168v-305h174v-136h-174v-620q0 -52 16.5 -74t55.5 -22q40 0 102 22v-135q-112 -16 -155 -16q-113 0 -150 41t-37 133v671h-155z" />
<glyph unicode="u" horiz-adv-x="1067" d="M133 344v621h162v-549q0 -66 0.5 -89.5t5.5 -53t16 -52.5q18 -37 62 -64.5t115 -27.5q20 0 43 3.5t58 13.5t69.5 34t58.5 60q22 33 33 76t12.5 72.5t1.5 82.5v494h160v-965h-162v147q-54 -79 -143 -125.5t-185 -46.5q-22 0 -46.5 3.5t-66 14t-80.5 39t-65 70.5 q-30 51 -39.5 108.5t-9.5 133.5z" />
<glyph unicode="v" horiz-adv-x="894" d="M25 965h170l256 -740l254 740h167l-348 -965h-147z" />
<glyph unicode="w" horiz-adv-x="1492" d="M23 965h176l241 -717l238 717h143l228 -717l251 717h173l-355 -965h-143l-232 719l-235 -719h-150z" />
<glyph unicode="x" horiz-adv-x="811" d="M18 0l299 489l-284 476h188l193 -332l194 332h185l-291 -476l291 -489h-185l-205 344l-200 -344h-185z" />
<glyph unicode="y" horiz-adv-x="894" d="M18 -309q53 -17 109 -17q72 0 109.5 40t78.5 161l41 119l-327 971h174l241 -766l256 766h170l-405 -1141q-32 -89 -56.5 -140.5t-59 -91t-78 -54.5t-107.5 -15q-73 0 -146 20v148z" />
<glyph unicode="z" horiz-adv-x="854" d="M27 0v135l555 688h-502v142h704v-131l-561 -699h574v-135h-770z" />
<glyph unicode="{" horiz-adv-x="575" d="M35 590v123q73 5 107.5 22.5t50.5 61.5t16 133v393q0 144 62.5 212.5t217.5 68.5h60v-119h-33q-34 0 -58 -5t-39.5 -18t-24.5 -26t-13 -39.5t-5 -47.5t-1 -59v-364q0 -126 -34 -182.5t-134 -94.5q94 -28 131 -87.5t37 -186.5v-402q0 -91 31 -124t122 -33h21v-119h-82 q-47 0 -83 7t-70 25.5t-56 49t-35.5 80.5t-13.5 118v394q0 69 -6.5 108t-27.5 63.5t-52 33.5t-88 14z" />
<glyph unicode="|" horiz-adv-x="483" d="M158 -293v1888h164v-1888h-164z" />
<glyph unicode="}" horiz-adv-x="575" d="M25 -184h38q47 0 75 11.5t41.5 40t17.5 59.5t4 85v361q0 127 33.5 183.5t132.5 94.5q-89 23 -127.5 84t-38.5 178v408q0 92 -31 127t-121 35h-24v119h90q55 0 97.5 -12.5t79 -43t56 -88t19.5 -141.5v-412q0 -106 33.5 -145.5t138.5 -48.5v-123q-72 -9 -105.5 -24.5 t-50 -55t-16.5 -117.5v-403q0 -148 -58 -219.5t-211 -71.5h-73v119z" />
<glyph unicode="~" horiz-adv-x="1482" d="M152 588q78 110 152 158.5t171 48.5q53 0 107 -17t166 -67l92 -41q76 -33 104 -42.5t57 -9.5q58 0 114 34t126 116l92 -123q-93 -108 -169 -156.5t-154 -48.5q-56 0 -108.5 15.5t-151.5 62.5l-72 35q-132 63 -213 63q-60 0 -97.5 -26.5t-111.5 -112.5l-12 -14z" />
<glyph unicode="&#xa0;" />
<glyph unicode="&#xa2;" horiz-adv-x="1024" d="M57 485q0 92 26 174.5t76 150.5t131 114.5t185 60.5v197h121v-195q40 -5 70.5 -12.5t79 -29.5t85.5 -54t76 -90.5t64 -136.5l-185 -17q-5 44 -21 79t-35 55.5t-46 37t-45.5 23t-42.5 12.5v-745q40 7 73.5 22.5t65.5 44t52 78t24 115.5l180 -17q-19 -87 -55 -155t-77 -108 t-91 -66t-90.5 -36t-81.5 -12v-211h-123v211q-130 13 -226.5 88t-143 184.5t-46.5 237.5zM231 485q0 -60 10.5 -115t36 -110.5t75.5 -95t120 -53.5v747q-109 -30 -175.5 -121t-66.5 -252z" />
<glyph unicode="&#xa3;" horiz-adv-x="1366" d="M74 575v134h268q-71 116 -98 193t-27 151q0 81 31 151.5t83.5 121t121.5 86.5t145.5 53.5t155.5 17.5q107 0 195.5 -30.5t144.5 -79t94.5 -111t55 -122.5t16.5 -118l-216 -21q3 21 3 39q0 33 -7.5 68.5t-29 77.5t-54 74t-89 53.5t-128.5 21.5q-130 0 -215.5 -71.5 t-85.5 -192.5q0 -53 16.5 -106t32 -82t55.5 -90t54 -84h428v-134h-354q3 -10 13.5 -39t13 -38.5t8 -31t7 -40t1.5 -41.5q0 -64 -23 -156q4 -2 24 -13t34 -18t40 -18t48 -18t51.5 -12t56.5 -5q95 0 148 62.5t55 157.5l190 -13q-5 -51 -17.5 -99.5t-39 -100.5t-63 -90 t-94.5 -62.5t-130 -24.5q-39 0 -79.5 6t-68 12.5t-68.5 22t-57 22.5t-58.5 27t-49.5 23q-136 -119 -288 -119q-55 0 -105.5 19t-87.5 63.5t-37 106.5q0 79 61.5 128.5t161.5 49.5q98 0 205 -37q4 16 4 35q0 50 -27 120t-63 121h-362zM256 143q0 -18 17.5 -33.5t48.5 -15.5 q71 0 143 64q-87 35 -143 35q-25 0 -45.5 -12.5t-20.5 -37.5z" />
<glyph unicode="&#xa5;" horiz-adv-x="1280" d="M29 1386h229l379 -587l387 587h227l-350 -505h229v-148h-325l-78 -106h403v-148h-399v-479h-192v479h-398v148h398l-66 104h-332v146h232z" />
<glyph unicode="&#xa8;" d="M-14 1108v211h178v-211h-178zM387 1108v211h182v-211h-182z" />
<glyph unicode="&#xa9;" horiz-adv-x="1720" d="M131 723q0 200 97 367.5t265 264.5t369 97q117 0 227.5 -36.5t200 -103t157.5 -154.5t105 -197t37 -224q0 -157 -56 -295t-152.5 -236t-232.5 -155t-290 -57q-198 0 -365.5 97t-264.5 264.5t-97 367.5zM205 721q0 -181 86.5 -332t237 -238.5t331.5 -87.5q175 0 326.5 88 t240.5 237t89 321q0 189 -85.5 343t-236 242t-334.5 88q-133 0 -254.5 -52t-209 -140.5t-139.5 -211t-52 -257.5zM438 707q0 217 125.5 355t323.5 138q146 0 236 -67t139 -215l-138 -39q-43 106 -95 147t-144 41q-135 0 -215 -95.5t-80 -256.5q0 -154 75 -244t203 -90 q103 0 165.5 51.5t96.5 161.5l140 -29q-47 -164 -147 -242.5t-257 -78.5q-192 0 -310 128t-118 335z" />
<glyph unicode="&#xab;" horiz-adv-x="811" d="M86 512v174l276 240v-187l-159 -139l159 -137v-182zM410 520v170l274 238v-183l-164 -145l164 -135v-176z" />
<glyph unicode="&#xad;" horiz-adv-x="757" d="M92 537v155h574v-155h-574z" />
<glyph unicode="&#xae;" horiz-adv-x="1720" d="M131 723q0 200 97 367.5t265 264.5t369 97q117 0 227.5 -36.5t200 -103t157.5 -154.5t105 -197t37 -224q0 -157 -56 -295t-152.5 -236t-232.5 -155t-290 -57q-198 0 -365.5 97t-264.5 264.5t-97 367.5zM207 721q0 -181 86.5 -332t236.5 -238.5t330 -87.5q175 0 326.5 88 t240.5 237t89 321q0 189 -85.5 343t-236 242t-334.5 88q-133 0 -254 -52t-208.5 -140.5t-139 -211t-51.5 -257.5zM575 262v922h267q169 0 247 -63t78 -201q0 -106 -47.5 -168t-148.5 -90l209 -400h-158l-195 387h-110v-387h-142zM719 774h117q98 0 143 34.5t45 109.5 t-48 108t-155 33h-102v-285z" />
<glyph unicode="&#xb4;" d="M147 1069l84 295h177l-177 -295h-84z" />
<glyph unicode="&#xb8;" d="M139 -197l150 230l59 -15l-59 -106l49 -27q38 -21 58 -57t20 -68q0 -83 -74.5 -129.5t-175.5 -46.5h-10v47q6 -2 20 -2q35 0 60.5 21t25.5 55q0 19 -7.5 33.5t-23.5 25t-28 16t-35 13t-29 10.5z" />
<glyph unicode="&#xbb;" horiz-adv-x="811" d="M127 274v185l164 143l-164 137v174l274 -231v-170zM446 279v184l162 141l-162 135v183l277 -232v-172z" />
<glyph unicode="&#x2c6;" d="M6 1071l193 309h137l213 -309h-154l-125 195l-120 -195h-144z" />
<glyph unicode="&#x2da;" d="M84 1245q0 80 56.5 137.5t135.5 57.5q87 0 141 -60.5t54 -134.5q0 -82 -56.5 -138t-138.5 -56q-81 0 -136.5 57t-55.5 137zM172 1247q0 -43 30.5 -74.5t73.5 -31.5q44 0 75.5 31.5t31.5 74.5t-31.5 74t-75.5 31t-74 -31t-30 -74z" />
<glyph unicode="&#x2dc;" d="M-8 1104q24 203 168 203q47 0 130.5 -34t110.5 -34q24 0 38.5 13t18 25t3.5 23h102q-5 -40 -12.5 -70t-24 -63.5t-48 -52t-75.5 -18.5q-46 0 -132 34.5t-115 34.5q-33 0 -48.5 -22t-15.5 -39h-100z" />
<glyph unicode="&#x401;" horiz-adv-x="1236" d="M162 0v1446h995v-170h-811v-447h705v-167h-705v-494h836v-168h-1020zM360 1599v209h179v-209h-179zM762 1599v209h180v-209h-180z" />
<glyph unicode="&#x402;" horiz-adv-x="1536" d="M25 1278v168h1060v-168h-434v-487q78 41 169.5 62t166.5 21q111 0 196.5 -26t137.5 -68t84.5 -101.5t44.5 -119.5t12 -129q0 -66 -12.5 -124t-46 -115.5t-86 -98.5t-140.5 -66.5t-202 -25.5h-55v156q342 0 342 274q0 139 -72.5 208t-202.5 69q-180 0 -336 -89v-618h-192 v1278h-434z" />
<glyph unicode="&#x403;" horiz-adv-x="1110" d="M160 0v1446h927v-168h-735v-1278h-192zM537 1579l98 254h203l-179 -254h-122z" />
<glyph unicode="&#x404;" horiz-adv-x="1564" d="M102 723q0 225 86 396.5t252 267.5t391 96q91 0 168.5 -11t156 -40t141 -75.5t115.5 -121.5t87 -174l-194 -37q-24 75 -68 132t-92.5 88.5t-107 51t-104.5 25.5t-93 6q-230 0 -365 -135t-160 -373h754v-168h-754q7 -85 28.5 -160.5t62 -144.5t98 -118.5t141.5 -79 t186 -29.5q178 0 315.5 102t168.5 252l205 -24q-35 -125 -105.5 -219.5t-165.5 -152t-206 -86t-236 -28.5q-213 0 -373.5 95.5t-246 267.5t-85.5 397z" />
<glyph unicode="&#x405;" horiz-adv-x="1366" d="M76 463l207 26q1 -21 2.5 -39t11 -59t24.5 -73.5t46.5 -72.5t73 -66.5t108.5 -45t149 -18.5q42 0 84.5 6.5t94 25.5t90.5 49.5t65.5 84t26.5 122.5q0 59 -20 101t-60.5 68.5t-85 42t-109.5 28.5l-131 27q-128 26 -218 58.5t-157.5 80.5t-100 115.5t-32.5 156.5 q0 167 138 283q144 119 374 119q122 0 220.5 -23.5t179.5 -85.5q88 -66 125 -142.5t59 -193.5l-194 -12q0 30 -7 64t-30.5 79t-62 80t-109.5 59.5t-164 24.5q-56 0 -110 -11t-105.5 -35t-83 -71t-31.5 -110q0 -50 21 -88t63.5 -63.5t89 -42.5t115.5 -33l264 -64 q26 -6 42.5 -10.5t59.5 -20t73 -33t69.5 -50t64 -70.5t42.5 -94t18 -121q0 -178 -121 -297q-160 -156 -457 -156q-240 0 -395 100q-190 123 -217 400z" />
<glyph unicode="&#x406;" horiz-adv-x="468" d="M137 0v1446h195v-1446h-195z" />
<glyph unicode="&#x407;" horiz-adv-x="573" d="M53 1599v209h172v-209h-172zM190 0v1446h193v-1446h-193zM348 1599v209h172v-209h-172z" />
<glyph unicode="&#x408;" horiz-adv-x="768" d="M18 -16v211q82 -41 191 -41q49 0 96.5 18.5t73.5 56.5q23 34 28 81.5t5 156.5v979h196v-1063q0 -74 -2.5 -111t-20.5 -88.5t-55 -93.5q-109 -127 -315 -127q-85 0 -197 21z" />
<glyph unicode="&#x409;" horiz-adv-x="2170" d="M20 0v168h21q45 4 73 11t58 30t46.5 58t33.5 102.5t25 155.5t15 224t9 302t2 395h893v-606h446q106 0 187.5 -24t131 -62.5t81 -93.5t43.5 -110.5t12 -119.5q0 -66 -12.5 -124t-46 -115.5t-86 -98.5t-140.5 -66.5t-202 -25.5h-606v1278h-517q0 -220 -3.5 -378.5 t-14 -293.5t-24.5 -223.5t-41 -159t-57 -109.5t-78.5 -65.5t-100 -36t-127.5 -12.5h-21zM1196 168h406q294 0 294 254q0 126 -72 188t-202 62h-426v-504z" />
<glyph unicode="&#x40a;" horiz-adv-x="2252" d="M160 0v1446h192v-606h733v606h193v-606h446q106 0 187.5 -24t131 -62.5t81 -93.5t43.5 -110.5t12 -119.5q0 -66 -12.5 -124t-46 -115.5t-86 -98.5t-140.5 -66.5t-202 -25.5h-607v672h-733v-672h-192zM1278 168h405q295 0 295 254q0 126 -72 188t-202 62h-426v-504z" />
<glyph unicode="&#x40b;" horiz-adv-x="1556" d="M25 1278v168h1060v-168h-434v-455q181 54 330 54q131 0 223 -25.5t144 -75.5t75 -114t23 -150v-512h-193v418q0 91 -16 148.5t-54 89t-88.5 42.5t-131.5 11q-157 0 -312 -54v-655h-192v1278h-434z" />
<glyph unicode="&#x40c;" horiz-adv-x="1351" d="M160 0v1446h192v-598h342q84 8 139 39t81 74.5t45.5 104.5t30.5 120.5t37.5 131.5t66.5 128h213q-58 -65 -95 -139.5t-50.5 -136t-30.5 -125.5t-36 -113t-65.5 -92.5t-120.5 -69.5q82 -19 135 -62.5t76 -98.5t42 -130.5t31.5 -149t47 -164t86.5 -165.5h-221 q-33 47 -55 111.5t-32 124t-21.5 124t-30.5 118t-51.5 97.5t-92 71.5t-145.5 33.5h-326v-680h-192zM598 1579l98 254h203l-178 -254h-123z" />
<glyph unicode="&#x40e;" horiz-adv-x="1277" d="M29 1446h217l418 -926l389 926h204l-426 -967q-49 -111 -83 -180.5t-74 -128t-74 -88t-84 -50t-103 -26.5t-132 -6h-62v168h62q130 0 182.5 29.5t91.5 119.5zM344 1798l150 21q25 -111 174 -111q64 0 113.5 25.5t60.5 85.5l147 -21q-15 -106 -105 -169.5t-216 -63.5 q-127 0 -218 64t-106 169z" />
<glyph unicode="&#x40f;" horiz-adv-x="1449" d="M160 0v1446h192v-1278h750v1278h188v-1446h-477v-348h-176v348h-477z" />
<glyph unicode="&#x410;" horiz-adv-x="1323" d="M20 0l551 1446h201l526 -1446h-202l-158 442h-551l-162 -442h-205zM449 604h432l-211 604z" />
<glyph unicode="&#x411;" horiz-adv-x="1392" d="M160 0v1446h1040v-168h-848v-438h512q106 0 187.5 -24t131 -62.5t81 -93.5t43.5 -110.5t12 -119.5q0 -66 -12.5 -124t-46 -115.5t-86.5 -98.5t-141 -66.5t-202 -25.5h-671zM352 168h471q295 0 295 254q0 126 -72 188t-202 62h-492v-504z" />
<glyph unicode="&#x412;" horiz-adv-x="1409" d="M158 0v1446h694q63 0 123 -15t113 -46t93 -74.5t63.5 -104.5t23.5 -131q0 -111 -60.5 -197.5t-160.5 -115.5q264 -80 264 -363q0 -92 -30.5 -164.5t-77 -115.5t-109 -71t-120 -38t-116.5 -10h-700zM340 170h469q49 0 86.5 4t80.5 18.5t71 40t46.5 71.5t18.5 110 q0 127 -81 193.5t-216 66.5h-475v-504zM340 838h428q45 0 81 4t78.5 18t71 37.5t47.5 66.5t19 101q0 96 -60 153.5t-188 57.5h-477v-438z" />
<glyph unicode="&#x413;" horiz-adv-x="1110" d="M160 0v1446h927v-168h-735v-1278h-192z" />
<glyph unicode="&#x414;" horiz-adv-x="1544" d="M25 168q47 3 91.5 32.5t88 96t75.5 164.5t52 248t20 335v402h942v-1278h185v-475h-176v307h-1102v-307h-176v475zM324 168h778v1110h-565v-234q0 -100 -3 -182t-15.5 -194.5t-34 -199t-63 -169.5t-97.5 -131z" />
<glyph unicode="&#x415;" horiz-adv-x="1236" d="M160 0v1446h995v-168h-803v-449h697v-167h-697v-494h828v-168h-1020z" />
<glyph unicode="&#x416;" horiz-adv-x="1843" d="M20 0q52 75 86.5 165.5t47 164t31.5 149t42 130.5t76 98.5t135 62.5q-70 26 -114.5 69.5t-62 92.5t-33.5 113t-28.5 125.5t-48 136t-90.5 139.5h213q44 -66 71 -154t40.5 -156.5t38 -133t80 -105t149.5 -49.5h172v598h193v-598h172q94 9 149.5 49.5t80 105t38 133 t40.5 156.5t71 154h213q-55 -65 -90.5 -139.5t-48 -136t-28.5 -125.5t-33.5 -113t-62 -92.5t-114.5 -69.5q82 -19 135 -62.5t76 -98.5t42 -130.5t31.5 -149t47 -164t86.5 -165.5h-221q-33 47 -55 111.5t-32 124t-21.5 124t-30.5 118t-51.5 97.5t-92 71.5t-145.5 33.5h-156 v-680h-193v680h-155q-86 -6 -145.5 -33.5t-92 -71.5t-51.5 -97.5t-30.5 -118t-21.5 -124t-32 -124t-55 -111.5h-222z" />
<glyph unicode="&#x417;" horiz-adv-x="1355" d="M70 440l192 33q0 -64 17 -117.5t44.5 -89t65.5 -63t76.5 -43t82 -25.5t77 -13t65.5 -3q92 0 162.5 24t112.5 66.5t63 97t21 119.5q0 31 -4.5 59t-21 64t-44 61.5t-79 43.5t-120.5 18h-309v168h250q90 0 151 17t93 50.5t44.5 74t12.5 95.5q0 123 -87.5 186.5t-238.5 63.5 q-164 0 -261 -82.5t-111 -220.5l-187 37q30 204 177.5 313t375.5 109q265 0 401 -104.5t136 -299.5q0 -124 -57.5 -199t-163.5 -118q116 -28 183.5 -118.5t67.5 -221.5q0 -107 -33 -189.5t-86 -132.5t-129 -82t-153.5 -43.5t-167.5 -11.5q-89 0 -167.5 12t-159 45t-139.5 85 t-100.5 138t-51.5 197z" />
<glyph unicode="&#x418;" horiz-adv-x="1490" d="M160 0v1446h192v-1028l787 893v135h192v-1446h-192v1057l-787 -893v-164h-192z" />
<glyph unicode="&#x419;" horiz-adv-x="1490" d="M160 0v1446h192v-1028l787 893v135h192v-1446h-192v1057l-787 -893v-164h-192zM424 1798l147 21q25 -111 174 -111q65 0 114.5 25.5t60.5 85.5l147 -21q-15 -106 -105 -169.5t-217 -63.5q-126 0 -216 63.5t-105 169.5z" />
<glyph unicode="&#x41a;" horiz-adv-x="1351" d="M160 0v1446h192v-598h342q84 8 139 39t81 74.5t45.5 104.5t30.5 120.5t37.5 131.5t66.5 128h213q-58 -65 -95 -139.5t-50.5 -136t-30.5 -125.5t-36 -113t-65.5 -92.5t-120.5 -69.5q82 -19 135 -62.5t76 -98.5t42 -130.5t31.5 -149t47 -164t86.5 -165.5h-221 q-33 47 -55 111.5t-32 124t-21.5 124t-30.5 118t-51.5 97.5t-92 71.5t-145.5 33.5h-326v-680h-192z" />
<glyph unicode="&#x41b;" horiz-adv-x="1404" d="M20 0v168h21q45 4 73 11t58 30t46.5 58t33.5 102.5t25 155.5t15 224t9 302t2 395h942v-1446h-192v1278h-566q0 -220 -3.5 -378.5t-14 -293.5t-24.5 -223.5t-41 -159t-57 -109.5t-78.5 -65.5t-100 -36t-127.5 -12.5h-21z" />
<glyph unicode="&#x41c;" horiz-adv-x="1662" d="M139 0v1446h250l442 -1186l447 1186h250v-1446h-193l27 1212l-457 -1212h-149l-449 1194q21 -1151 21 -1194h-189z" />
<glyph unicode="&#x41d;" horiz-adv-x="1492" d="M162 0v1446h190v-615h787v615h194v-1446h-194v662h-787v-662h-190z" />
<glyph unicode="&#x41e;" horiz-adv-x="1662" d="M104 725q0 154 40.5 281t109.5 214.5t163 147.5t198.5 87.5t218.5 27.5q163 0 299 -55.5t230 -154t146 -237t52 -301.5q0 -110 -23.5 -215.5t-79.5 -208t-138 -178.5t-209.5 -123t-283.5 -47q-114 0 -219 29t-197.5 90.5t-160.5 150t-107 215t-39 277.5zM313 723 q0 -281 140.5 -444.5t384.5 -163.5q110 0 202 37.5t162.5 111.5t110 194.5t39.5 276.5q0 90 -16 172t-54.5 160t-96.5 134.5t-148 91t-203 34.5q-111 0 -200.5 -34t-148.5 -91.5t-98.5 -136t-56.5 -163.5t-17 -179z" />
<glyph unicode="&#x41f;" horiz-adv-x="1454" d="M160 0v1446h1134v-1446h-192v1278h-750v-1278h-192z" />
<glyph unicode="&#x420;" horiz-adv-x="1280" d="M156 0v1446h686q136 0 231.5 -55.5t139.5 -146t44 -206.5q0 -63 -13.5 -121.5t-45 -115t-78.5 -98t-120 -66.5t-164 -25h-494v-612h-186zM342 784h465q120 0 190 65t70 193q0 121 -70.5 179.5t-187.5 58.5h-467v-496z" />
<glyph unicode="&#x421;" horiz-adv-x="1564" d="M100 723q0 225 86 396.5t252.5 267.5t392.5 96q253 0 419.5 -115.5t240.5 -327.5l-195 -39q-20 64 -57.5 120t-93 104t-137.5 76t-179 28q-243 0 -379.5 -163.5t-136.5 -432.5q0 -151 39.5 -269t110.5 -191t164 -110.5t204 -37.5q180 0 313 107.5t167 316.5l209 -25 q-16 -75 -48.5 -148.5t-92.5 -149.5t-137.5 -133t-190.5 -93.5t-244 -36.5q-323 0 -515 209t-192 551z" />
<glyph unicode="&#x422;" horiz-adv-x="1110" d="M23 1278v168h1058v-168h-432v-1278h-192v1278h-434z" />
<glyph unicode="&#x423;" horiz-adv-x="1277" d="M29 1446h217l418 -926l389 926h204l-426 -967q-49 -111 -83 -180.5t-74 -128t-74 -88t-84 -50t-103 -26.5t-132 -6h-62v168h62q130 0 182.5 29.5t91.5 119.5z" />
<glyph unicode="&#x424;" horiz-adv-x="1626" d="M90 725q0 74 7.5 133t26 114.5t50 97t79.5 76t113 56t153 33.5t198 12v228h192v-228q153 0 264 -22.5t181 -63.5t110.5 -107t56 -142.5t15.5 -182.5t-15.5 -182t-56 -141.5t-111 -105t-180.5 -61.5t-264 -22v-237h-192v237q-128 0 -226 14.5t-167 44.5t-114.5 71 t-72 100.5t-37 125t-10.5 152.5zM291 719q0 -98 18.5 -161t67 -106t130.5 -61t210 -18v719q-127 0 -210 -21.5t-130.5 -69t-66.5 -114.5t-19 -168zM909 373q168 0 258 32t129 107.5t39 216.5q0 102 -17.5 166.5t-65 111t-130 66t-213.5 19.5v-719z" />
<glyph unicode="&#x425;" horiz-adv-x="1280" d="M43 0l481 758l-454 688h229l338 -520l324 520h227l-443 -688l494 -758h-227l-375 588l-371 -588h-223z" />
<glyph unicode="&#x426;" horiz-adv-x="1540" d="M160 0v1446h192v-1278h746v1278h192v-1278h185v-475h-177v307h-1138z" />
<glyph unicode="&#x427;" horiz-adv-x="1351" d="M111 913v533h192v-438q0 -91 19 -148.5t64 -89t105 -42.5t156 -11q152 0 352 37v692h193v-1446h-193v586q-201 -37 -370 -37q-146 0 -248.5 25.5t-160.5 75t-83.5 113.5t-25.5 150z" />
<glyph unicode="&#x428;" horiz-adv-x="1970" d="M160 0v1446h192v-1278h537v1278h192v-1278h537v1278h192v-1446h-1650z" />
<glyph unicode="&#x429;" horiz-adv-x="2060" d="M160 0v1446h192v-1278h537v1278h192v-1278h537v1278h192v-1278h185v-475h-176v307h-1659z" />
<glyph unicode="&#x42a;" horiz-adv-x="1613" d="M20 1278v168h578v-606h487q106 0 187.5 -24t131 -62.5t81 -93.5t43.5 -110.5t12 -119.5q0 -66 -12.5 -124t-46 -115.5t-86 -98.5t-140.5 -66.5t-202 -25.5h-647v1278h-386zM598 168h446q295 0 295 254q0 126 -72 188t-202 62h-467v-504z" />
<glyph unicode="&#x42b;" horiz-adv-x="1761" d="M160 0v1446h192v-606h447q106 0 187 -24t130.5 -62.5t81 -93.5t43.5 -110.5t12 -119.5q0 -66 -12.5 -124t-46 -115.5t-86 -98.5t-140.5 -66.5t-202 -25.5h-606zM352 168h406q295 0 295 254q0 126 -72.5 188t-202.5 62h-426v-504zM1409 0v1446h193v-1446h-193z" />
<glyph unicode="&#x42c;" horiz-adv-x="1368" d="M160 0v1446h192v-606h488q106 0 187 -24t130.5 -62.5t81 -93.5t43.5 -110.5t12 -119.5q0 -66 -12.5 -124t-46 -115.5t-86 -98.5t-140.5 -66.5t-202 -25.5h-647zM352 168h447q295 0 295 254q0 126 -72.5 188t-202.5 62h-467v-504z" />
<glyph unicode="&#x42d;" horiz-adv-x="1589" d="M70 449l204 24q31 -150 168.5 -252t315.5 -102q118 0 214 45.5t157.5 123t97.5 169.5t47 194h-754v168h754q-25 233 -162 370.5t-346 137.5q-29 0 -57 -3t-74.5 -11.5t-89.5 -29.5t-88.5 -52.5t-86.5 -85t-69 -121.5l-195 37q39 100 102 177t132.5 122.5t152 74t154 38.5 t146.5 10q115 0 218.5 -30.5t190.5 -93t150.5 -151t99 -210.5t35.5 -265q0 -127 -25.5 -234.5t-68 -185t-101.5 -139.5t-123.5 -100.5t-136 -64t-136.5 -36t-128 -10.5q-120 0 -227.5 28.5t-201.5 85.5t-164 152t-105 220z" />
<glyph unicode="&#x42e;" horiz-adv-x="2174" d="M160 0v1446h192v-615h328q13 132 57.5 241t110.5 184.5t152 127t180.5 75.5t197.5 24q148 0 269 -48t198.5 -124.5t130.5 -176.5t75 -200t22 -199q0 -115 -26.5 -225t-83 -209.5t-137.5 -174.5t-198.5 -119t-257.5 -44q-135 0 -255 43.5t-216 128t-154.5 220.5t-64.5 309 h-328v-664h-192zM881 723q0 -281 135 -442.5t354 -161.5q215 0 354.5 168.5t139.5 447.5q0 111 -32.5 215.5t-92 189t-153.5 136t-208 51.5q-123 0 -219.5 -49t-156 -133.5t-90.5 -192t-31 -229.5z" />
<glyph unicode="&#x42f;" horiz-adv-x="1392" d="M41 0q43 37 72 91t43 109.5t25.5 116t26.5 115.5t39 103t69.5 84t111.5 53q-125 22 -205 108.5t-80 237.5q0 138 63.5 236.5t169.5 145t245 46.5h612v-1446h-193v618h-272q-93 0 -162 -19.5t-109 -52t-68 -77.5t-40 -93.5t-24 -102.5t-20.5 -102t-28.5 -94t-50 -77h-225z M344 1024q0 -129 69 -183.5t222 -54.5h405v492h-434q-75 0 -128.5 -23t-81.5 -62t-40 -80.5t-12 -88.5z" />
<glyph unicode="&#x430;" horiz-adv-x="1024" d="M66 250q0 130 104 209q120 90 391 108l148 11v32q0 26 -0.5 43t-5 47.5t-12 50.5t-23.5 44.5t-38 39.5t-57 25t-79 10q-101 0 -155 -48.5t-54 -139.5v-14l-170 10q0 14 2.5 32.5t11.5 50.5t24 62t43.5 62t65.5 55.5t95 39t128 15.5q145 0 242 -57q50 -29 80 -61.5t44 -80 t17.5 -90.5t3.5 -118v-340q0 -22 0.5 -34.5t4.5 -29.5t11.5 -26t22 -16t35.5 -7q13 0 49 8v-137q-55 -18 -104 -18q-69 0 -103 24q-27 20 -45 57t-20 62q-21 -22 -34.5 -36t-47 -40t-65.5 -41.5t-81 -28t-102 -12.5q-145 0 -236 76.5t-91 200.5zM246 254q0 -60 45.5 -101.5 t136.5 -41.5q32 0 64 5.5t73 23.5t72 47.5t52.5 83t21.5 124.5v76q-8 -1 -55.5 -8t-79 -12.5t-76.5 -13.5t-79 -17.5t-56 -18.5q-16 -6 -32 -15.5t-38 -26.5t-35.5 -44.5t-13.5 -60.5z" />
<glyph unicode="&#x431;" horiz-adv-x="1118" d="M94 520q0 182 21 314.5t64.5 227.5t115.5 154.5t167.5 90t227.5 39.5q68 3 104.5 24.5t36.5 75.5h164q0 -130 -75 -192t-234 -76q-215 -19 -313 -110t-121 -288q71 99 153.5 142t204.5 43q205 0 315.5 -133.5t110.5 -356.5q0 -73 -15.5 -142.5t-51.5 -136t-88 -116.5 t-132 -80.5t-178 -30.5q-235 0 -356 150t-121 401zM283 479q0 -178 82.5 -278.5t214.5 -100.5q116 0 198 102t82 283q0 142 -76.5 247.5t-201.5 105.5q-139 0 -219 -106t-80 -253z" />
<glyph unicode="&#x432;" horiz-adv-x="1024" d="M135 0v965h473q74 0 130.5 -14.5t89.5 -37.5t54 -56t28.5 -65t7.5 -69q0 -149 -134 -221q91 -26 132.5 -85.5t41.5 -160.5q0 -121 -88.5 -188.5t-248.5 -67.5h-486zM295 135h297q102 0 154.5 34t52.5 114q0 73 -46 113t-161 40h-297v-301zM295 571h266q45 0 77.5 5 t61.5 17.5t43.5 39t14.5 65.5q0 40 -15 67t-43.5 40.5t-61 18.5t-77.5 5h-266v-258z" />
<glyph unicode="&#x433;" horiz-adv-x="851" d="M135 0v965h696v-136h-536v-829h-160z" />
<glyph unicode="&#x434;" horiz-adv-x="1171" d="M20 135q72 18 124.5 81.5t80.5 161t40.5 204t13.5 231.5v152h692v-830h159v-381h-143v246h-823v-246h-144v381zM256 135h555v694h-385v-77q0 -102 -13 -211t-54 -229.5t-103 -176.5z" />
<glyph unicode="&#x435;" horiz-adv-x="1067" d="M80 492q0 106 29.5 193t77 143t109.5 95t125 55.5t126 16.5q66 0 127.5 -17t119 -57t100.5 -98t69 -146.5t26 -197.5v-26h-733v-13q0 -47 10 -94t34 -93.5t59 -81.5t89 -57t121 -22q60 0 107.5 22t76.5 58.5t45 71.5t25 73l166 -22q-8 -23 -14.5 -40t-25.5 -53.5 t-39.5 -64t-56 -61t-76.5 -55.5t-99 -37t-125 -15q-93 0 -175 29t-150 88.5t-108 164t-40 241.5zM260 571h551q0 123 -78 210t-198 87q-83 0 -144.5 -43t-92.5 -108t-38 -146z" />
<glyph unicode="&#x436;" horiz-adv-x="1314" d="M25 0q41 48 63.5 115t32.5 126.5t26 116.5t55.5 100t108.5 62q-54 19 -84.5 58.5t-41.5 88.5t-20 100t-32.5 105.5t-66.5 92.5h184q26 -35 41 -90t23 -103t22 -92.5t49.5 -71t95.5 -26.5h97v383h159v-383h97q60 0 95.5 26.5t49.5 71t22 92.5t23 103t41 90h184 q-43 -38 -66.5 -92.5t-32.5 -105.5t-20 -100t-41.5 -88.5t-84.5 -58.5q69 -19 108.5 -62t55.5 -100t26 -116.5t32.5 -126.5t63.5 -115h-184q-23 43 -37.5 99.5t-20 102.5t-19 93t-34 79t-65.5 52t-113 20h-80v-446h-159v446h-80q-68 0 -113 -20t-65.5 -52t-34 -79t-19 -93 t-20 -102.5t-37.5 -99.5h-184z" />
<glyph unicode="&#x437;" horiz-adv-x="978" d="M61 299l160 25q7 -31 12 -48.5t16 -45t23.5 -43t34 -34.5t48 -29t65 -17t86.5 -7q239 0 239 162q0 86 -52 127t-177 41h-123v135h103q32 0 57.5 2.5t57 12t52.5 26t35.5 46.5t14.5 71q0 59 -53 102t-154 43q-39 0 -75.5 -8t-75 -27.5t-66 -58.5t-37.5 -94l-160 20 q13 139 127 217t297 78q61 0 120 -12t116.5 -39t93 -79.5t35.5 -123.5q0 -84 -42.5 -140.5t-146.5 -88.5q63 -11 108 -37t68.5 -62t34 -72.5t10.5 -78.5q0 -138 -105.5 -215.5t-303.5 -77.5q-71 0 -129 8.5t-113 31t-94.5 59t-68 95t-38.5 136.5z" />
<glyph unicode="&#x438;" horiz-adv-x="1105" d="M135 0v965h160v-650l516 547v103h160v-965h-160v666l-516 -547v-119h-160z" />
<glyph unicode="&#x439;" horiz-adv-x="1105" d="M135 0v965h160v-650l516 547v103h160v-965h-160v666l-516 -547v-119h-160zM256 1380l131 21q25 -135 166 -135q61 0 108 30.5t58 104.5l131 -21q-15 -112 -97.5 -178.5t-199.5 -66.5t-199.5 66.5t-97.5 178.5z" />
<glyph unicode="&#x43a;" horiz-adv-x="978" d="M135 0v965h160v-383h194q67 0 106 26.5t55 71t25 92.5t25 103t45 90h185q-46 -38 -72 -96t-35.5 -111.5t-22 -104t-45 -86.5t-91.5 -47q69 -19 108.5 -62t55.5 -100t26 -116.5t32.5 -126.5t63.5 -115h-184q-23 43 -38 99.5t-20.5 102.5t-19 93t-34.5 79t-66.5 52 t-114.5 20h-178v-446h-160z" />
<glyph unicode="&#x43b;" horiz-adv-x="1052" d="M20 0v135h25q75 1 111.5 48t52.5 173t16 385v224h693v-965h-160v829h-385v-88q0 -99 -0.5 -146.5t-3 -129t-8.5 -120.5t-17 -99t-27.5 -88.5t-41 -65t-57 -52.5t-76 -28t-97.5 -12h-25z" />
<glyph unicode="&#x43c;" horiz-adv-x="1310" d="M135 0v965h242l295 -801l295 801h209v-965h-144v793l-291 -793h-168l-278 809v-809h-160z" />
<glyph unicode="&#x43d;" horiz-adv-x="1085" d="M135 0v965h160v-392h496v392h159v-965h-159v438h-496v-438h-160z" />
<glyph unicode="&#x43e;" horiz-adv-x="1110" d="M82 481q0 55 10 114t42 133.5t82.5 131t142 96t210.5 39.5q97 0 179 -30.5t145.5 -90.5t99 -158t35.5 -224t-37.5 -227t-102.5 -165t-150 -97.5t-183 -33.5q-209 0 -341 135t-132 377zM258 473q0 -42 5.5 -84t24 -96.5t49 -95t86.5 -69t130 -28.5q146 0 222.5 106.5 t76.5 297.5q0 67 -14.5 127t-45.5 114.5t-89 86.5t-136 32q-63 0 -113.5 -19t-82 -47t-54.5 -69.5t-34 -75.5t-17 -76.5t-7 -62t-1 -41.5z" />
<glyph unicode="&#x43f;" horiz-adv-x="1069" d="M135 0v965h799v-965h-160v829h-479v-829h-160z" />
<glyph unicode="&#x440;" horiz-adv-x="1150" d="M135 -459v1424h160v-138q50 64 140.5 116t203.5 52q78 0 152.5 -31t138.5 -91t103.5 -162.5t39.5 -231.5q0 -70 -13.5 -138t-46.5 -136.5t-83 -120t-129.5 -83.5t-179.5 -32q-97 0 -185.5 37t-140.5 107v-572h-160zM295 465q0 -164 81 -258t222 -94q145 0 222 100t77 272 q0 94 -26 166t-69 112.5t-92 60.5t-102 20q-142 0 -227.5 -100t-85.5 -279z" />
<glyph unicode="&#x441;" horiz-adv-x="1067" d="M80 475q0 110 30 203.5t87.5 164.5t147.5 111.5t204 40.5q84 0 155.5 -20.5t120 -53t85 -76t56 -86.5t27.5 -87l-180 -17q-19 106 -87 164t-175 58q-58 0 -108 -21t-92 -64.5t-66.5 -122t-24.5 -184.5q0 -177 78 -283t223 -106q243 0 275 269l176 -17 q-38 -200 -157.5 -289.5t-297.5 -89.5q-223 0 -350 140t-127 366z" />
<glyph unicode="&#x442;" horiz-adv-x="860" d="M29 829v136h802v-136h-321v-829h-160v829h-321z" />
<glyph unicode="&#x443;" horiz-adv-x="894" d="M18 -309q53 -17 109 -17q72 0 109.5 40t78.5 161l41 119l-327 971h174l241 -766l256 766h170l-405 -1141q-32 -89 -56.5 -140.5t-59 -91t-78 -54.5t-107.5 -15q-73 0 -146 20v148z" />
<glyph unicode="&#x444;" horiz-adv-x="1310" d="M82 477q0 231 121.5 350t371.5 138v481h160v-481q137 -8 234 -45.5t153.5 -102t81.5 -145.5t25 -187q0 -471 -494 -485v-459h-160v459q-493 10 -493 477zM258 473q0 -152 71 -240t246 -102v703q-50 -5 -89.5 -14.5t-84 -34t-74 -62t-49.5 -101.5t-20 -149zM735 131 q79 4 138 26t92.5 53.5t54 78t27 90.5t6.5 100q0 163 -70 250t-248 105v-703z" />
<glyph unicode="&#x445;" horiz-adv-x="811" d="M18 0l299 489l-284 476h188l193 -332l194 332h185l-291 -476l291 -489h-185l-205 344l-200 -344h-185z" />
<glyph unicode="&#x446;" horiz-adv-x="1134" d="M135 0v965h160v-830h479v830h160v-830h160v-381h-144v246h-815z" />
<glyph unicode="&#x447;" horiz-adv-x="966" d="M90 633v332h160v-289q0 -94 50.5 -134t156.5 -40q47 0 111 11.5t104 25.5v426h159v-965h-159v403q-156 -32 -269 -32q-148 0 -230.5 67.5t-82.5 194.5z" />
<glyph unicode="&#x448;" horiz-adv-x="1503" d="M135 0v965h160v-820h377v820h159v-820h377v820h160v-965h-1233z" />
<glyph unicode="&#x449;" horiz-adv-x="1568" d="M135 0v965h160v-820h377v820h159v-820h377v820h160v-830h160v-381h-144v246h-1249z" />
<glyph unicode="&#x44a;" horiz-adv-x="1167" d="M20 829v136h443v-379h317q72 0 128.5 -15t94 -41t62 -63t35 -78t10.5 -88q0 -168 -90 -234.5t-285 -66.5h-432v829h-283zM463 135h256q103 0 161 35.5t58 124.5q0 47 -16 78.5t-48.5 48t-72 23t-96.5 6.5h-242v-316z" />
<glyph unicode="&#x44b;" horiz-adv-x="1302" d="M135 0v965h160v-379h266q90 0 156 -22.5t103.5 -63t55 -90t17.5 -109.5q0 -169 -90.5 -235t-286.5 -66h-381zM295 135h205q104 0 162.5 35.5t58.5 124.5q0 91 -59 123.5t-177 32.5h-190v-316zM1008 0v965h159v-965h-159z" />
<glyph unicode="&#x44c;" horiz-adv-x="999" d="M135 0v965h160v-379h317q72 0 128.5 -15t94 -41t62 -63t35 -78t10.5 -88q0 -168 -90 -234.5t-285 -66.5h-432zM295 135h256q103 0 161 35.5t58 124.5q0 47 -16 78.5t-48.5 48t-72 23t-96.5 6.5h-242v-316z" />
<glyph unicode="&#x44d;" horiz-adv-x="1077" d="M61 307l160 17q13 -57 41.5 -100t60.5 -66t71 -37t66 -17.5t52 -3.5q133 0 215.5 91t87.5 229h-455v135h455q-7 86 -34.5 149t-59 93.5t-75.5 47.5t-69 20t-55 3q-95 0 -170.5 -50t-93.5 -138l-174 12q13 55 46 106.5t86 96.5t133.5 72.5t176.5 27.5q216 0 342.5 -129 t126.5 -385q0 -62 -12.5 -125.5t-46 -134.5t-85 -125.5t-138.5 -90.5t-197 -36q-82 0 -153 18t-133 56t-106.5 105.5t-62.5 158.5z" />
<glyph unicode="&#x44e;" horiz-adv-x="1536" d="M135 0v965h160v-392h248q8 59 24 112t51.5 112t85.5 101t130.5 69.5t181.5 27.5q87 0 164 -30.5t139 -90.5t98.5 -158.5t36.5 -223.5q0 -238 -130 -380.5t-323 -142.5q-204 0 -328 122t-136 347h-242v-438h-160zM713 473q0 -43 5 -85t22.5 -97t47 -95t84 -68t127.5 -28 q74 0 129 31.5t87 87.5t47.5 125.5t15.5 153.5q0 67 -15.5 129t-46.5 116.5t-87.5 87.5t-129.5 33q-58 0 -105 -19t-76.5 -47t-50.5 -69.5t-31 -75.5t-16 -76.5t-6.5 -62t-0.5 -41.5z" />
<glyph unicode="&#x44f;" horiz-adv-x="1024" d="M61 0q36 27 55.5 76t29.5 100t25.5 102t55.5 94t107 64q-86 11 -135 77t-49 146q0 306 339 306h400v-965h-160v387h-203q-64 0 -108 -22t-64.5 -56t-34.5 -79t-19.5 -86t-18 -81.5t-31.5 -62.5h-189zM309 676q0 -65 38 -109.5t128 -44.5h254v307h-258q-46 0 -80 -16 t-50.5 -41.5t-24 -49.5t-7.5 -46z" />
<glyph unicode="&#x451;" horiz-adv-x="1067" d="M80 492q0 106 29.5 193t77 143t109.5 95t125 55.5t126 16.5q66 0 127.5 -17t119 -57t100.5 -98t69 -146.5t26 -197.5v-26h-733v-13q0 -47 10 -94t34 -93.5t59 -81.5t89 -57t121 -22q60 0 107.5 22t76.5 58.5t45 71.5t25 73l166 -22q-8 -23 -14.5 -40t-25.5 -53.5 t-39.5 -64t-56 -61t-76.5 -55.5t-99 -37t-125 -15q-93 0 -175 29t-150 88.5t-108 164t-40 241.5zM260 571h551q0 123 -78 210t-198 87q-83 0 -144.5 -43t-92.5 -108t-38 -146zM274 1237v209h160v-209h-160zM657 1237v209h160v-209h-160z" />
<glyph unicode="&#x452;" horiz-adv-x="1067" d="M-70 1094v135h205v217h160v-217h389v-135h-389v-310q120 129 297 129q84 0 148 -23.5t100.5 -59.5t59.5 -87.5t30.5 -98.5t7.5 -101v-756q0 -48 -1.5 -73t-13.5 -60.5t-36 -61.5q-57 -61 -166 -61q-68 0 -123 8v146q68 -7 74 -7q43 0 73 21q23 16 28 42t5 91v651 q0 108 -20 162q-24 61 -77.5 93t-121.5 32q-20 0 -43 -4t-56 -15t-65 -37.5t-55 -64.5q-21 -36 -31.5 -84t-12 -79.5t-1.5 -88.5v-397h-160v1094h-205z" />
<glyph unicode="&#x453;" horiz-adv-x="851" d="M135 0v965h696v-136h-536v-829h-160zM393 1069l84 295h176l-176 -295h-84z" />
<glyph unicode="&#x454;" horiz-adv-x="1077" d="M82 475q0 110 30.5 203.5t88.5 164.5t150 111.5t208 40.5q107 0 191.5 -26.5t136.5 -71.5t82 -96.5t39 -108.5l-174 -12q-13 90 -86.5 139t-184.5 49q-124 0 -207.5 -79t-93.5 -234h455v-135h-455q5 -138 87.5 -229t215.5 -91q25 0 52 3.5t66 17.5t71 37t60.5 66 t41.5 100l160 -17q-18 -91 -62.5 -158.5t-106.5 -105.5t-133 -56t-153 -18q-224 0 -351.5 140t-127.5 366z" />
<glyph unicode="&#x455;" horiz-adv-x="980" d="M63 311l187 27q0 -56 10.5 -95.5t42.5 -74.5q67 -74 217 -74q27 0 54 3.5t58.5 14.5t55 28t39.5 47t16 69q0 34 -13.5 59.5t-30.5 40.5t-48.5 26.5t-51.5 16.5t-56 11l-94 18q-189 37 -267 105.5t-78 175.5q0 61 22.5 110.5t59.5 81.5t86 54t101 31t106 9 q136 0 226 -51.5t135 -118.5q39 -59 51 -147l-176 -21q-3 63 -15 91q-22 47 -85 84.5t-158 37.5q-92 0 -141.5 -44t-49.5 -97q0 -31 15 -54t48 -40.5t71.5 -29.5t99.5 -27l94 -23q75 -18 127.5 -38t99.5 -52t70.5 -79.5t23.5 -111.5q0 -136 -114.5 -220.5t-288.5 -84.5 q-113 0 -196.5 26.5t-134.5 75t-78.5 107t-39.5 133.5z" />
<glyph unicode="&#x456;" horiz-adv-x="425" d="M135 1237v209h160v-209h-160zM141 0v965h158v-965h-158z" />
<glyph unicode="&#x457;" horiz-adv-x="491" d="M41 1237v209h152v-209h-152zM166 0v965h160v-965h-160zM299 1237v209h152v-209h-152z" />
<glyph unicode="&#x458;" horiz-adv-x="425" d="M-47 -315q68 -7 74 -7q43 0 73 21q23 16 28 42t5 91v1133h160v-1178q0 -48 -1.5 -73t-13.5 -60.5t-36 -61.5q-57 -61 -166 -61q-68 0 -123 8v146zM133 1255v191h160v-191h-160z" />
<glyph unicode="&#x459;" horiz-adv-x="1556" d="M20 0v135h25q75 1 111.5 48t52.5 173t16 385v224h668v-379h276q72 0 128.5 -15t94 -41t62 -63t35 -78t10.5 -88q0 -168 -90 -234.5t-285 -66.5h-391v829h-360v-88q0 -99 -0.5 -146.5t-3 -129t-8.5 -120.5t-17 -99t-27.5 -88.5t-41 -65t-57 -52.5t-76 -28t-97.5 -12h-25z M893 135h215q103 0 161 35.5t58 124.5q0 47 -16 78.5t-48.5 48t-72 23t-96.5 6.5h-201v-316z" />
<glyph unicode="&#x45a;" horiz-adv-x="1597" d="M135 0v965h160v-379h479v379h160v-379h276q72 0 128.5 -15t94 -41t62 -63t35 -78t10.5 -88q0 -168 -90 -234.5t-285 -66.5h-391v451h-479v-451h-160zM934 135h215q103 0 161 35.5t58 124.5q0 47 -16 78.5t-48.5 48t-72 23t-96.5 6.5h-201v-316z" />
<glyph unicode="&#x45b;" horiz-adv-x="1067" d="M-70 1094v135h205v217h160v-217h389v-135h-389v-310q120 129 297 129q84 0 148 -23.5t100.5 -59.5t59.5 -87.5t30.5 -98.5t7.5 -101v-543h-160v483q0 108 -20 162q-24 61 -77.5 93t-121.5 32q-20 0 -43 -4t-56 -15t-65 -37.5t-55 -64.5q-21 -36 -31.5 -84t-12 -79.5 t-1.5 -88.5v-397h-160v1094h-205z" />
<glyph unicode="&#x45c;" horiz-adv-x="978" d="M135 0v965h160v-383h194q67 0 106 26.5t55 71t25 92.5t25 103t45 90h185q-46 -38 -72 -96t-35.5 -111.5t-22 -104t-45 -86.5t-91.5 -47q69 -19 108.5 -62t55.5 -100t26 -116.5t32.5 -126.5t63.5 -115h-184q-23 43 -38 99.5t-20.5 102.5t-19 93t-34.5 79t-66.5 52 t-114.5 20h-178v-446h-160zM455 1069l84 295h176l-176 -295h-84z" />
<glyph unicode="&#x45e;" horiz-adv-x="894" d="M18 -309q53 -17 109 -17q72 0 109.5 40t78.5 161l41 119l-327 971h174l241 -766l256 766h170l-405 -1141q-32 -89 -56.5 -140.5t-59 -91t-78 -54.5t-107.5 -15q-73 0 -146 20v148zM164 1380l133 21q25 -135 166 -135q61 0 108 30.5t58 104.5l131 -21 q-15 -112 -97.5 -178.5t-199.5 -66.5t-199.5 66t-99.5 179z" />
<glyph unicode="&#x45f;" horiz-adv-x="1069" d="M135 0v965h160v-830h479v830h160v-965h-328v-287h-143v287h-328z" />
<glyph unicode="&#x490;" horiz-adv-x="1110" d="M160 0v1446h751v307h176v-475h-735v-1278h-192z" />
<glyph unicode="&#x491;" horiz-adv-x="851" d="M135 0v965h549v245h147v-381h-536v-829h-160z" />
<glyph unicode="&#x2000;" horiz-adv-x="916" />
<glyph unicode="&#x2001;" horiz-adv-x="1833" />
<glyph unicode="&#x2002;" horiz-adv-x="916" />
<glyph unicode="&#x2003;" horiz-adv-x="1833" />
<glyph unicode="&#x2004;" horiz-adv-x="611" />
<glyph unicode="&#x2005;" horiz-adv-x="458" />
<glyph unicode="&#x2006;" horiz-adv-x="305" />
<glyph unicode="&#x2007;" horiz-adv-x="305" />
<glyph unicode="&#x2008;" horiz-adv-x="229" />
<glyph unicode="&#x2009;" horiz-adv-x="366" />
<glyph unicode="&#x200a;" horiz-adv-x="101" />
<glyph unicode="&#x2010;" horiz-adv-x="757" d="M92 537v155h574v-155h-574z" />
<glyph unicode="&#x2011;" horiz-adv-x="757" d="M92 537v155h574v-155h-574z" />
<glyph unicode="&#x2012;" horiz-adv-x="757" d="M92 537v155h574v-155h-574z" />
<glyph unicode="&#x2013;" horiz-adv-x="1228" d="M92 537v155h1045v-155h-1045z" />
<glyph unicode="&#x2014;" horiz-adv-x="1832" d="M92 537v155h1649v-155h-1649z" />
<glyph unicode="&#x2018;" horiz-adv-x="468" d="M129 901v105q0 131 18 216.5t68 223.5h96q-52 -154 -67 -322h88v-223h-203z" />
<glyph unicode="&#x2019;" horiz-adv-x="468" d="M129 1221v225h203v-107q0 -243 -84 -438h-96q67 191 67 320h-90z" />
<glyph unicode="&#x201a;" horiz-adv-x="468" d="M129 0v223h203v-123q0 -230 -84 -419h-96q67 191 67 319h-90z" />
<glyph unicode="&#x201c;" horiz-adv-x="768" d="M129 901v117q0 231 86 428h96q-67 -184 -67 -322h88v-223h-203zM434 901v117q0 231 86 428h94q-27 -63 -45 -155.5t-20 -166.5h88v-223h-203z" />
<glyph unicode="&#x201d;" horiz-adv-x="768" d="M129 1221v225h203v-125q0 -231 -84 -420h-96q67 191 67 320h-90zM434 1221v225h203v-137q0 -213 -86 -408h-94q30 88 43 153.5t22 166.5h-88z" />
<glyph unicode="&#x201e;" horiz-adv-x="768" d="M129 0v223h203v-123q0 -230 -84 -419h-96q67 191 67 319h-90zM434 0v223h203v-137q0 -206 -86 -405h-94q52 156 65 319h-88z" />
<glyph unicode="&#x2026;" horiz-adv-x="2048" d="M244 0v190h192v-190h-192zM926 0v190h194v-190h-194zM1610 0v190h194v-190h-194z" />
<glyph unicode="&#x202f;" horiz-adv-x="366" />
<glyph unicode="&#x2039;" horiz-adv-x="512" d="M98 520v170l275 238v-183l-164 -145l164 -135v-176z" />
<glyph unicode="&#x203a;" horiz-adv-x="512" d="M139 274v185l164 143l-164 137v174l275 -231v-170z" />
<glyph unicode="&#x205f;" horiz-adv-x="458" />
<glyph unicode="&#x20ac;" horiz-adv-x="1433" d="M47 547l47 127h103q0 67 4 100h-154l47 127h121q53 280 229.5 431t460.5 151q154 0 269 -32.5t215 -121.5l-66 -186q-77 98 -173 142t-224 44q-208 0 -334 -110.5t-168 -317.5h817l-45 -127h-786v-41q0 -11 1 -33t1 -26h749l-45 -127h-690q37 -202 167 -312t335 -110 q135 0 256 53t202 154v-217q-190 -152 -483 -152q-284 0 -466 152t-228 432h-162z" />
<glyph unicode="&#x2122;" horiz-adv-x="1421" d="M47 1346v100h512v-100h-194v-580h-121v580h-197zM629 766v680h159l168 -543l162 543h154v-680h-111l4 534l-159 -534h-111l-154 526q2 -456 2 -526h-114z" />
<glyph unicode="&#x25fc;" horiz-adv-x="962" d="M0 0v963h963v-963h-963z" />
</font>
</defs>
</svg>
